<?xml version="1.0" standalone="no"?>
<!DOCTYPE svg PUBLIC "-//W3C//DTD SVG 20010904//EN"
 "http://www.w3.org/TR/2001/REC-SVG-20010904/DTD/svg10.dtd">
<svg version="1.0" xmlns="http://www.w3.org/2000/svg"
 width="1280.000000pt" height="251.000000pt" viewBox="0 0 1280.000000 251.000000"
 preserveAspectRatio="xMidYMid meet">

<g transform="translate(0.000000,251.000000) scale(0.100000,-0.100000)"
fill="#000000" stroke="none">
<path d="M3122 2193 l-2 -173 550 0 550 0 0 164 c0 140 -2 165 -16 170 -28 11
-1064 7 -1064 -4 0 -6 185 -10 518 -10 284 0 525 0 535 0 15 0 17 -14 17 -155
l0 -155 -540 0 -540 0 -3 168 -3 167 -2 -172z"/>
<path d="M4820 1341 l0 -1011 190 0 190 0 0 370 0 370 73 -48 c41 -27 103 -58
139 -69 75 -25 223 -47 274 -41 l35 4 207 -298 207 -298 213 0 213 0 -44 63
c-24 34 -128 182 -230 328 -103 147 -187 269 -187 272 0 3 29 21 64 41 80 45
163 112 201 162 21 29 14 25 -26 -17 -30 -31 -74 -70 -99 -86 -49 -33 -151
-86 -154 -81 -1 2 -13 18 -25 36 l-22 32 -215 0 -214 0 50 -69 c60 -85 56 -87
-84 -72 -145 17 -274 69 -353 144 l-33 31 0 -382 0 -382 -180 0 -180 0 0 1000
0 1000 453 0 c584 -1 656 -10 852 -105 121 -60 189 -116 250 -208 125 -188
138 -499 31 -741 -14 -31 -23 -56 -20 -56 10 0 62 126 80 195 14 53 19 105 19
210 -1 158 -21 252 -77 357 -63 119 -205 234 -359 292 -151 57 -173 59 -726
63 l-513 5 0 -1011z"/>
<path d="M8780 2258 c-30 -51 -81 -138 -113 -193 -85 -144 -102 -174 -82 -150
9 11 70 111 136 223 l119 202 145 0 145 0 0 -1000 0 -1000 -165 0 -165 0 0 28
c0 15 7 322 15 682 8 359 13 656 11 658 -2 2 -25 -31 -50 -74 -26 -42 -45 -78
-43 -80 2 -3 19 20 38 51 18 30 37 55 41 55 4 0 6 -73 3 -162 -5 -158 -25
-1055 -25 -1130 l0 -38 175 0 175 0 0 1010 0 1010 -153 0 -153 0 -54 -92z"/>
<path d="M11539 2213 c-100 -168 -94 -157 -82 -150 5 3 45 67 89 142 l79 135
147 0 148 0 0 -1000 0 -1000 -167 0 -166 0 6 353 c18 923 19 1022 8 1007 -6
-8 -8 -24 -5 -34 6 -16 -12 -1142 -20 -1283 l-2 -53 178 0 178 0 -2 1008 -3
1007 -152 3 -151 3 -83 -138z"/>
<path d="M840 2185 l0 -155 860 0 860 0 0 155 0 155 -860 0 -860 0 0 -155z"/>
<path d="M6960 1335 l0 -1005 171 0 171 0 -6 198 c-13 393 -27 1154 -22 1159
6 6 -20 48 487 -789 l204 -338 87 0 c80 0 88 2 99 23 12 21 11 21 -8 5 -11
-10 -36 -18 -56 -18 l-37 0 0 214 0 214 -241 408 c-133 225 -311 527 -396 672
l-155 262 -149 0 -149 0 0 -1005z"/>
<path d="M9746 2324 c-8 -21 -7 -1959 0 -1979 5 -12 34 -15 170 -15 l164 0 0
113 c0 61 -5 323 -11 582 -6 259 -9 514 -7 568 l3 99 315 -521 c173 -287 327
-541 343 -566 l27 -45 88 0 87 0 23 40 c28 49 22 53 -8 5 -19 -30 -27 -35 -61
-35 l-39 0 0 218 0 217 58 100 c32 55 95 163 140 239 46 76 81 141 79 143 -3
2 -67 -102 -143 -232 -76 -129 -142 -234 -147 -232 -5 1 -33 43 -62 92 -48 83
-182 311 -409 695 -51 85 -141 239 -201 342 l-110 188 -146 0 c-127 0 -148 -2
-153 -16z"/>
<path d="M11400 1978 c-55 -93 -52 -88 -46 -88 7 0 98 152 93 157 -2 2 -24
-29 -47 -69z"/>
<path d="M5030 2031 c0 -8 104 -11 358 -11 383 -1 432 -5 534 -52 75 -35 128
-85 164 -155 27 -55 29 -65 29 -183 0 -116 -2 -129 -28 -181 -15 -31 -47 -75
-71 -97 -75 -69 -138 -94 -301 -118 l-90 -13 87 4 c157 9 276 63 348 159 59
80 75 135 74 251 0 91 -3 107 -31 165 -51 111 -142 182 -274 216 -52 13 -134
17 -431 21 -264 4 -368 2 -368 -6z"/>
<path d="M8545 1858 l-16 -33 20 25 c20 24 26 40 16 40 -2 0 -12 -15 -20 -32z"/>
<path d="M11315 1833 c-15 -26 -36 -63 -47 -80 -11 -18 -17 -33 -15 -33 8 0
99 152 94 157 -3 2 -17 -18 -32 -44z"/>
<path d="M8465 1723 c-91 -155 -99 -169 -87 -158 16 14 153 247 149 252 -2 2
-30 -40 -62 -94z"/>
<path d="M11230 1688 c-12 -22 -12 -22 6 -6 10 10 15 20 12 24 -4 3 -12 -5
-18 -18z"/>
<path d="M11577 1663 c-4 -3 -7 -11 -7 -17 0 -6 5 -5 12 2 6 6 9 14 7 17 -3 3
-9 2 -12 -2z"/>
<path d="M11200 1638 c-12 -22 -12 -22 6 -6 10 10 15 20 12 24 -4 3 -12 -5
-18 -18z"/>
<path d="M11546 1608 c-69 -110 -116 -191 -113 -194 2 -2 28 35 57 83 29 49
60 98 68 111 8 12 12 22 8 22 -3 0 -12 -10 -20 -22z"/>
<path d="M11165 1578 l-16 -33 20 25 c20 24 26 40 16 40 -2 0 -12 -15 -20 -32z"/>
<path d="M8350 1528 c-12 -22 -12 -22 6 -6 10 10 15 20 12 24 -4 3 -12 -5 -18
-18z"/>
<path d="M8710 1525 c-7 -9 -10 -18 -7 -21 3 -3 10 4 17 15 13 25 8 27 -10 6z"/>
<path d="M11130 1518 c-12 -22 -12 -22 6 -6 10 10 15 20 12 24 -4 3 -12 -5
-18 -18z"/>
<path d="M3020 1330 l0 -171 600 1 600 1 0 170 0 169 -600 0 -600 0 0 -170z"/>
<path d="M8300 1442 c-18 -31 -41 -68 -49 -82 -9 -13 -11 -21 -4 -17 13 8 96
148 90 153 -1 2 -18 -23 -37 -54z"/>
<path d="M8667 1453 c-46 -74 -79 -133 -73 -133 3 0 21 26 39 59 19 32 43 70
52 85 10 14 15 26 11 26 -3 0 -16 -17 -29 -37z"/>
<path d="M11406 1378 c-68 -108 -266 -442 -263 -445 2 -2 62 93 132 209 71
117 135 223 143 236 8 12 12 22 8 22 -3 0 -12 -10 -20 -22z"/>
<path d="M8214 1298 c-9 -18 -24 -44 -33 -58 -9 -13 -11 -21 -4 -17 14 9 65
98 59 104 -3 3 -12 -10 -22 -29z"/>
<path d="M8540 1244 c-23 -36 -39 -68 -37 -70 3 -3 17 17 32 43 16 26 35 58
43 71 8 12 12 22 9 22 -3 0 -24 -30 -47 -66z"/>
<path d="M1520 780 l0 -470 185 0 185 0 0 470 0 470 -185 0 -185 0 0 -470z"/>
<path d="M8152 1193 c-6 -10 -31 -53 -56 -96 -25 -42 -42 -77 -38 -77 9 1 114
182 108 187 -2 3 -9 -4 -14 -14z"/>
<path d="M8476 1138 c-64 -102 -146 -242 -143 -245 2 -2 35 48 72 109 38 62
75 123 83 136 8 12 12 22 8 22 -3 0 -12 -10 -20 -22z"/>
<path d="M11103 878 c-73 -117 -134 -221 -130 -224 2 -3 35 46 72 108 37 62
74 123 83 136 8 12 12 22 8 22 -3 0 -18 -19 -33 -42z"/>
<path d="M8310 865 c-7 -9 -10 -18 -7 -21 3 -3 10 4 17 15 13 25 8 27 -10 6z"/>
<path d="M8276 808 c-71 -115 -116 -191 -112 -195 2 -2 28 35 57 84 29 48 59
98 67 111 8 12 12 22 8 22 -3 0 -12 -10 -20 -22z"/>
<path d="M2930 490 l0 -170 645 0 645 0 0 170 0 170 -645 0 -645 0 0 -170z"/>
</g>
</svg>
